<?xml version="1.0" encoding="UTF-8"?>
<svg version="1.1" xmlns="http://www.w3.org/2000/svg" width="500" height="500">
<path d="M0 0 C165 0 330 0 500 0 C500 165 500 330 500 500 C335 500 170 500 0 500 C0 335 0 170 0 0 Z " fill="#FEFEFE" transform="translate(0,0)"/>
<path d="M0 0 C11.15549378 8.42353612 17.88412664 21.59039987 20.3125 35.25 C23.03849519 56.95411409 19.83604543 79.28536954 6.8125 97.375 C5.56056321 98.93205098 4.29257076 100.47651246 3 102 C2.21625 103.051875 1.4325 104.10375 0.625 105.1875 C-12.04949854 118.76731987 -27.81167554 125.35776209 -46.078125 126.2421875 C-68.91593463 126.87450918 -88.88745423 121.13958328 -105.71484375 105.37890625 C-114.49338368 96.2402211 -119.35493027 85.48815957 -122.3125 73.3125 C-122.57003052 72.26147095 -122.57003052 72.26147095 -122.83276367 71.18920898 C-123.91987356 66.36725001 -124.14972373 61.94088302 -124 57 C-120.33863434 60.462935 -117.51603982 63.98209502 -114.75 68.1875 C-106.4943205 80.43174166 -96.51915255 92.16615744 -81.93359375 96.6328125 C-78.95858421 97.19776381 -76.01750973 97.05802903 -73 97 C-73.73605469 96.55269531 -74.47210938 96.10539062 -75.23046875 95.64453125 C-80.34769131 92.47415162 -84.96203058 89.52742026 -89 85 C-89.763125 84.360625 -90.52625 83.72125 -91.3125 83.0625 C-93.56582347 80.30843798 -93.31451714 78.45968858 -93 75 C-88.66313897 75.53027122 -85.69106902 76.55334121 -81.9375 78.75 C-73.86380734 82.9584123 -65.18433411 84.55559884 -56.34472656 86.48583984 C-35.08382272 91.14800805 -35.08382272 91.14800805 -29 100.5 C-24 109.05769231 -24 109.05769231 -24 114 C-5.55192458 103.02456273 2.53372656 88.37664927 8 68 C12.37289165 47.98664314 7.75943554 29.06586085 -3 12 C-4.30591009 10.31175997 -5.63154593 8.63795269 -7 7 C-4.66666667 4.66666667 -2.33333333 2.33333333 0 0 Z " fill="#FDD94A" transform="translate(201,114)"/>
<path d="M0 0 C-0.804375 0.928125 -1.60875 1.85625 -2.4375 2.8125 C-3.62512013 4.20823113 -4.81260621 5.60407631 -6 7 C-6.66515625 7.76441406 -7.3303125 8.52882813 -8.015625 9.31640625 C-12.63786555 14.76167164 -16.6568165 20.3630435 -20.5 26.375 C-20.9647876 27.10098389 -21.4295752 27.82696777 -21.90844727 28.57495117 C-23.68535345 31.35791126 -25.45968421 34.14237305 -27.21972656 36.93603516 C-32.63636309 45.47485555 -37.69271583 50.98347279 -46.875 55.375 C-57.57524354 57.51504871 -66.08296322 54.74732834 -76 51 C-74.63756789 45.47550396 -72.11821002 42.50146996 -68.25 38.5625 C-67.2122399 37.48171719 -66.17578334 36.39968125 -65.140625 35.31640625 C-64.62822266 34.78289551 -64.11582031 34.24938477 -63.58789062 33.69970703 C-60.95892477 30.88561412 -58.47692842 27.94785471 -56 25 C-58.54326552 27.37329257 -61.08431376 29.74894667 -63.625 32.125 C-64.33785156 32.79015625 -65.05070313 33.4553125 -65.78515625 34.140625 C-69.05561325 37.20105265 -72.28440738 40.27214784 -75.3984375 43.4921875 C-78 46 -78 46 -80 46 C-80.59256412 33.17427873 -80.96076556 23.43072195 -72 13.375 C-52.64770471 -4.34365997 -24.46089324 -6.90660515 0 0 Z " fill="#97C469" transform="translate(234,63)"/>
<path d="M0 0 C11.3436911 -0.81838252 23.06018246 1.58748614 32 9 C37.22920559 14.19411025 40.24510374 18.25030199 40.2734375 25.84375 C40.26570313 26.5553125 40.25796875 27.266875 40.25 28 C40.26160156 29.06734375 40.26160156 29.06734375 40.2734375 30.15625 C40.2582132 34.23636184 39.87231933 36.25536135 38 40 C35.36 35.05 32.72 30.1 30 25 C30.99 27.083125 31.98 29.16625 33 31.3125 C36 37.625 36 37.625 36 41 C30.71338417 43.22594351 25.65057689 43.94476206 20 43 C13.26107438 40.18312909 10.4038216 32.8527106 7.7109375 26.51953125 C0 7.03903565 0 7.03903565 0 0 Z " fill="#97C46A" transform="translate(109,67)"/>
<path d="M0 0 C-0.45445964 1.41791408 -0.91374944 2.83428046 -1.375 4.25 C-1.75785156 5.43335938 -1.75785156 5.43335938 -2.1484375 6.640625 C-3 9 -3 9 -5 13 C1.6 13 8.2 13 15 13 C15 16.3 15 19.6 15 23 C8.4 23 1.8 23 -5 23 C-4.34 24.98 -3.68 26.96 -3 29 C-2.92477031 31.33212027 -2.90674124 33.6685311 -3 36 C-11.36736705 33.52179621 -19.00848619 29.77205523 -26.8125 25.9375 C-28.13451959 25.29311479 -29.45678368 24.64923093 -30.77929688 24.00585938 C-35.53010639 21.69186989 -40.27763905 19.37163615 -45 17 C-44 14 -44 14 -41.93725586 12.9284668 C-41.03885986 12.60531494 -40.14046387 12.28216309 -39.21484375 11.94921875 C-38.21614258 11.58296387 -37.21744141 11.21670898 -36.18847656 10.83935547 C-35.1156543 10.45924316 -34.04283203 10.07913086 -32.9375 9.6875 C-30.74334607 8.89232297 -28.54933603 8.0967488 -26.35546875 7.30078125 C-25.27442871 6.91229004 -24.19338867 6.52379883 -23.07958984 6.12353516 C-20.36590105 5.13349268 -17.67421056 4.10551597 -14.98828125 3.04296875 C-14.2619751 2.75784424 -13.53566895 2.47271973 -12.78735352 2.17895508 C-10.87211638 1.42318804 -8.95940522 0.66102866 -7.046875 -0.1015625 C-4.07636986 -0.97748068 -2.81611137 -1.15711507 0 0 Z " fill="#72BBD1" transform="translate(196,153)"/>
<path d="M0 0 C2.0245738 1.93254772 3.42105792 3.63158688 5 6 C5 6.99 5 7.98 5 9 C3.34765625 10.47265625 3.34765625 10.47265625 1.0625 12.0625 C-17.00749219 25.59371864 -25.50043054 45.35792572 -29 67 C-31.64752004 64.42215154 -33.94432065 62.08351902 -36 59 C-35.69633503 41.08376699 -26.54993158 23.29809349 -14 11 C-9.57842762 6.78006284 -5.32208956 3.04252323 0 0 Z " fill="#FDD94B" transform="translate(113,98)"/>
<path d="M0 0 C2.31 0 4.62 0 7 0 C7 4.29 7 8.58 7 13 C10.3 13 13.6 13 17 13 C17 8.71 17 4.42 17 0 C19.31 0 21.62 0 24 0 C24 10.56 24 21.12 24 32 C21.69 32 19.38 32 17 32 C17 27.71 17 23.42 17 19 C13.7 19 10.4 19 7 19 C7 23.29 7 27.58 7 32 C4.69 32 2.38 32 0 32 C0 21.44 0 10.88 0 0 Z " fill="#7CC0D4" transform="translate(285,156)"/>
<path d="M0 0 C2.31 0 4.62 0 7 0 C7.33 3.63 7.66 7.26 8 11 C8.49628906 10.2059375 8.99257813 9.411875 9.50390625 8.59375 C14.98650249 0.35425053 14.98650249 0.35425053 18.08984375 -0.73046875 C20 -0.6875 20 -0.6875 23 0 C21.46681094 3.48452058 19.32894114 6.20345456 16.92578125 9.12109375 C15.58585355 11.84052507 16.08528368 13.12400004 17 16 C18.14101803 18.43800256 19.30820809 20.81055474 20.5625 23.1875 C24 29.74633072 24 29.74633072 24 32 C21.69 32 19.38 32 17 32 C15.99491199 30.21118264 14.99607264 28.41885304 14 26.625 C13.1646875 25.12839844 13.1646875 25.12839844 12.3125 23.6015625 C11 21 11 21 11 19 C10.01 19.66 9.02 20.32 8 21 C7.41651248 23.6556728 7.41651248 23.6556728 7.3125 26.625 C7.24675781 27.62789062 7.18101562 28.63078125 7.11328125 29.6640625 C7.07589844 30.43492187 7.03851563 31.20578125 7 32 C4.69 32 2.38 32 0 32 C0 21.44 0 10.88 0 0 Z " fill="#7AC0D4" transform="translate(426,156)"/>
<path d="M0 0 C5.94 0 11.88 0 18 0 C18 1.98 18 3.96 18 6 C14.04 6 10.08 6 6 6 C6 7.98 6 9.96 6 12 C8.97 12 11.94 12 15 12 C15 13.98 15 15.96 15 18 C12.36 18 9.72 18 7 18 C7 20.64 7 23.28 7 26 C10.63 26 14.26 26 18 26 C18 27.98 18 29.96 18 32 C12.06 32 6.12 32 0 32 C0 21.44 0 10.88 0 0 Z " fill="#78BED3" transform="translate(236,156)"/>
<path d="M0 0 C0 2.31 0 4.62 0 7 C-0.495 6.835 -0.99 6.67 -1.5 6.5 C-3.72609117 6.05478177 -5.7377913 5.83441077 -8 5.75 C-8.66 5.72421875 -9.32 5.6984375 -10 5.671875 C-12.78943039 6.12951592 -14.04641846 6.95625316 -16 9 C-16.59713962 11.8598561 -16.59713962 11.8598561 -16.4375 15 C-16.43556641 16.5778125 -16.43556641 16.5778125 -16.43359375 18.1875 C-16.20401105 20.96924976 -16.20401105 20.96924976 -14.78125 22.85546875 C-12.4256147 24.36906775 -10.84752453 24.36694409 -8.0625 24.3125 C-7.20785156 24.30863281 -6.35320312 24.30476563 -5.47265625 24.30078125 C-2.89971808 23.98780141 -1.22494525 23.29573378 1 22 C1 24.31 1 26.62 1 29 C-3.89655665 31.39831346 -7.43209169 32.69598854 -13 32 C-16.87318895 30.55672748 -19.52547273 28.47452727 -22.4375 25.5625 C-24.83758761 20.09030025 -24.73408979 14.88020903 -24 9 C-19.44450921 -0.9870375 -9.94778213 -3.31592738 0 0 Z " fill="#76BDD2" transform="translate(355,157)"/>
<path d="M0 0 C0.95003906 0.00644531 1.90007812 0.01289063 2.87890625 0.01953125 C5.4375 0.1875 5.4375 0.1875 8.4375 1.1875 C8.4375 3.4975 8.4375 5.8075 8.4375 8.1875 C7.4475 7.8575 6.4575 7.5275 5.4375 7.1875 C-1.3254023 6.38655967 -1.3254023 6.38655967 -7.1875 9.25 C-9.30561017 13.77505354 -9.12756987 17.33084185 -7.6875 22.0625 C-6.74655876 24.3376532 -6.74655876 24.3376532 -4.5625 25.1875 C-2.94084248 25.30898305 -1.31365673 25.36293652 0.3125 25.375 C1.17617188 25.38917969 2.03984375 25.40335938 2.9296875 25.41796875 C5.5616288 25.17609252 7.17730544 24.51733541 9.4375 23.1875 C9.4375 25.4975 9.4375 27.8075 9.4375 30.1875 C4.52385548 32.59418303 1.02743818 33.79731144 -4.5625 33.1875 C-9.89989473 31.19905883 -13.01583824 28.28082352 -15.5625 23.1875 C-16.75203896 11.57820207 -16.75203896 11.57820207 -14.36328125 6.77734375 C-10.22440015 1.86698355 -6.46709261 -0.09678642 0 0 Z " fill="#75BDD2" transform="translate(411.5625,155.8125)"/>
<path d="M0 0 C0 1.32 0 2.64 0 4 C-0.99 4.33 -1.98 4.66 -3 5 C-3.73323796 7.01508358 -3.73323796 7.01508358 -4 9 C-2.68 9 -1.36 9 0 9 C0 10.32 0 11.64 0 13 C-1.32 13 -2.64 13 -4 13 C-4 16.63 -4 20.26 -4 24 C-5.32 24 -6.64 24 -8 24 C-8 20.37 -8 16.74 -8 13 C-8.99 13 -9.98 13 -11 13 C-10.896875 13.886875 -10.79375 14.77375 -10.6875 15.6875 C-11 19 -11 19 -13 21.875 C-17.16273171 24.82360163 -18.97544571 24.7975483 -24 24 C-26.99993115 21.45005852 -27.85480459 19.87117244 -28.5 16 C-27.86089908 12.16539447 -26.89357127 10.59679473 -24 8 C-20.5625 6.9375 -20.5625 6.9375 -17 7 C-14.0625 8.9375 -14.0625 8.9375 -12 11 C-11.67 10.34 -11.34 9.68 -11 9 C-10.01 9 -9.02 9 -8 9 C-8.12375 7.88625 -8.12375 7.88625 -8.25 6.75 C-8 4 -8 4 -6.25 1.6875 C-4 0 -4 0 0 0 Z " fill="#76BED2" transform="translate(295,312)"/>
<path d="M0 0 C7.59 0 15.18 0 23 0 C23 1.98 23 3.96 23 6 C20.36 6 17.72 6 15 6 C15 14.58 15 23.16 15 32 C12.69 32 10.38 32 8 32 C8 23.42 8 14.84 8 6 C5.36 6 2.72 6 0 6 C0 4.02 0 2.04 0 0 Z " fill="#78BFD3" transform="translate(257,156)"/>
<path d="M0 0 C2.31 0 4.62 0 7 0 C7 8.58 7 17.16 7 26 C9.64 26 12.28 26 15 26 C15 27.98 15 29.96 15 32 C10.05 32 5.1 32 0 32 C0 21.44 0 10.88 0 0 Z " fill="#7ABFD3" transform="translate(362,156)"/>
<path d="M0 0 C0 7.26 0 14.52 0 22 C-1.32 22 -2.64 22 -4 22 C-4 19.69 -4 17.38 -4 15 C-4.99 15.495 -4.99 15.495 -6 16 C-9.54231061 16.38503376 -11.36257342 16.41935959 -14.375 14.4375 C-16.63326454 11.05010319 -16.56116268 8.9982841 -16 5 C-12.98272085 -2.09060601 -6.64460953 -0.36112008 0 0 Z " fill="#77BED3" transform="translate(353,364)"/>
<path d="M0 0 C1.32 0 2.64 0 4 0 C4.22527296 3.45745022 4.42733544 6.91587025 4.625 10.375 C4.68945312 11.35984375 4.75390625 12.3446875 4.8203125 13.359375 C4.871875 14.30039062 4.9234375 15.24140625 4.9765625 16.2109375 C5.02893066 17.08024902 5.08129883 17.94956055 5.13525391 18.84521484 C5 21 5 21 3 23 C-0.38552517 23.56032211 -3.61114702 23.52472562 -7 23 C-10.37288852 20.3498733 -10.87586186 18.69517357 -11.625 14.5 C-11 11 -11 11 -8.3125 8.0625 C-5.03923099 6.02442685 -3.73296197 5.451035 0 6 C0 4.02 0 2.04 0 0 Z " fill="#76BED2" transform="translate(185,313)"/>
<path d="M0 0 C1.85308995 3.19143268 1.72933682 6.40762358 1.125 9.9375 C-0.4375 12.9375 -0.4375 12.9375 -2.875 14.9375 C-6.625 15.25 -6.625 15.25 -9.875 14.9375 C-9.875 16.9175 -9.875 18.8975 -9.875 20.9375 C-11.195 20.9375 -12.515 20.9375 -13.875 20.9375 C-13.875 13.6775 -13.875 6.4175 -13.875 -1.0625 C-4.60227273 -2.60795455 -4.60227273 -2.60795455 0 0 Z " fill="#75BDD2" transform="translate(252.875,321.0625)"/>
<path d="M0 0 C0 7.26 0 14.52 0 22 C-1.32 22 -2.64 22 -4 22 C-4 20.02 -4 18.04 -4 16 C-5.60875 16.12375 -5.60875 16.12375 -7.25 16.25 C-11 16 -11 16 -13.4375 14.5 C-15.64914439 10.96136898 -15.77420762 8.0625088 -15 4 C-11.70539732 -2.27543367 -7.5406668 0 0 0 Z " fill="#77BED3" transform="translate(184,364)"/>
<path d="M0 0 C2.88381579 2.58803981 3.8491179 4.19529549 4.5625 8 C3.78056289 12.17033126 2.44652326 13.55871269 -1 16 C-4.07549372 16.75517074 -5.73164594 16.51878636 -9 16 C-11.99993115 13.45005852 -12.85480459 11.87117244 -13.5 8 C-12.88466097 4.30796584 -11.58383614 2.65983132 -9 0 C-5.77839187 -1.61080407 -3.42436421 -0.82657067 0 0 Z " fill="#78BFD3" transform="translate(368,320)"/>
<path d="M0 0 C3.28102974 0.99049955 4.29615264 1.38113464 6.3125 4 C7.16813131 8.18565586 6.97509019 11.8680751 4.8125 15.5625 C1.2777424 17.59498562 -1.71090703 17.92895819 -5.6875 17 C-8.92622519 14.32805171 -9.57665865 12.62071155 -10.3125 8.5 C-9.6875 5 -9.6875 5 -7.125 2 C-3.6875 0 -3.6875 0 0 0 Z " fill="#77BED3" transform="translate(84.6875,319)"/>
<path d="M0 0 C2.31 0 4.62 0 7 0 C7 10.56 7 21.12 7 32 C4.69 32 2.38 32 0 32 C0 21.44 0 10.88 0 0 Z " fill="#77BED2" transform="translate(318,156)"/>
<path d="M0 0 C1.9375 1.1875 1.9375 1.1875 3 3 C3.1875 6.1875 3.1875 6.1875 3 9 C-0.63 9 -4.26 9 -8 9 C-7.67 9.66 -7.34 10.32 -7 11 C-4.87423218 11.46651207 -4.87423218 11.46651207 -2.4375 11.625 C-1.61121094 11.69976562 -0.78492188 11.77453125 0.06640625 11.8515625 C0.70449219 11.90054687 1.34257812 11.94953125 2 12 C1.67 13.32 1.34 14.64 1 16 C-3.84435994 16.47493725 -6.9563259 16.72418203 -11.0625 13.875 C-13.35974648 10.46618264 -13.75471928 9.02516948 -13 5 C-9.06764917 -0.89852625 -6.88281267 -1.44901319 0 0 Z " fill="#79BFD3" transform="translate(387,364)"/>
<path d="M0 0 C1.9375 1.1875 1.9375 1.1875 3 3 C3.1875 6.1875 3.1875 6.1875 3 9 C-0.63 9 -4.26 9 -8 9 C-7.67 9.66 -7.34 10.32 -7 11 C-4.87423218 11.46651207 -4.87423218 11.46651207 -2.4375 11.625 C-1.61121094 11.69976562 -0.78492188 11.77453125 0.06640625 11.8515625 C0.70449219 11.90054687 1.34257812 11.94953125 2 12 C1.67 13.32 1.34 14.64 1 16 C-3.84435994 16.47493725 -6.9563259 16.72418203 -11.0625 13.875 C-13.35974648 10.46618264 -13.75471928 9.02516948 -13 5 C-9.06764917 -0.89852625 -6.88281267 -1.44901319 0 0 Z " fill="#79BFD3" transform="translate(219,364)"/>
<path d="M0 0 C1.9375 1.1875 1.9375 1.1875 3 3 C3.1875 6.1875 3.1875 6.1875 3 9 C-0.63 9 -4.26 9 -8 9 C-7.67 9.66 -7.34 10.32 -7 11 C-4.87423218 11.46651207 -4.87423218 11.46651207 -2.4375 11.625 C-1.61121094 11.69976562 -0.78492187 11.77453125 0.06640625 11.8515625 C0.70449219 11.90054687 1.34257813 11.94953125 2 12 C1.67 13.32 1.34 14.64 1 16 C-3.84435994 16.47493725 -6.9563259 16.72418203 -11.0625 13.875 C-13.35974648 10.46618264 -13.75471928 9.02516948 -13 5 C-9.06764917 -0.89852625 -6.88281267 -1.44901319 0 0 Z " fill="#79BFD3" transform="translate(123,364)"/>
<path d="M0 0 C3.3125 1.0625 3.3125 1.0625 5.25 2.8125 C6.3125 5.0625 6.3125 5.0625 6.3125 10.0625 C0.8675 10.5575 0.8675 10.5575 -4.6875 11.0625 C-3.19006881 12.55993119 -1.69925761 12.39452693 0.375 12.625 C1.674375 12.769375 2.97375 12.91375 4.3125 13.0625 C3.9825 14.3825 3.6525 15.7025 3.3125 17.0625 C-3.80958505 17.66606653 -3.80958505 17.66606653 -7.6875 15 C-9.6875 12.0625 -9.6875 12.0625 -10.375 8.5625 C-9.6875 5.0625 -9.6875 5.0625 -7.125 2.0625 C-3.6875 0.0625 -3.6875 0.0625 0 0 Z " fill="#78BFD3" transform="translate(421.6875,318.9375)"/>
<path d="M0 0 C3.3125 1.0625 3.3125 1.0625 5.25 2.8125 C6.3125 5.0625 6.3125 5.0625 6.3125 10.0625 C0.8675 10.5575 0.8675 10.5575 -4.6875 11.0625 C-3.19006881 12.55993119 -1.69925761 12.39452693 0.375 12.625 C1.674375 12.769375 2.97375 12.91375 4.3125 13.0625 C3.9825 14.3825 3.6525 15.7025 3.3125 17.0625 C-3.80958505 17.66606653 -3.80958505 17.66606653 -7.6875 15 C-9.6875 12.0625 -9.6875 12.0625 -10.375 8.5625 C-9.6875 5.0625 -9.6875 5.0625 -7.125 2.0625 C-3.6875 0.0625 -3.6875 0.0625 0 0 Z " fill="#78BFD3" transform="translate(306.6875,318.9375)"/>
<path d="M0 0 C3.3125 1.0625 3.3125 1.0625 5.25 2.8125 C6.3125 5.0625 6.3125 5.0625 6.3125 10.0625 C0.8675 10.5575 0.8675 10.5575 -4.6875 11.0625 C-3.19006881 12.55993119 -1.69925761 12.39452693 0.375 12.625 C1.674375 12.769375 2.97375 12.91375 4.3125 13.0625 C3.9825 14.3825 3.6525 15.7025 3.3125 17.0625 C-3.80958505 17.66606653 -3.80958505 17.66606653 -7.6875 15 C-9.6875 12.0625 -9.6875 12.0625 -10.375 8.5625 C-9.6875 5.0625 -9.6875 5.0625 -7.125 2.0625 C-3.6875 0.0625 -3.6875 0.0625 0 0 Z " fill="#78BFD3" transform="translate(202.6875,318.9375)"/>
<path d="M0 0 C3.3125 1.0625 3.3125 1.0625 5.25 2.8125 C6.3125 5.0625 6.3125 5.0625 6.3125 10.0625 C0.8675 10.5575 0.8675 10.5575 -4.6875 11.0625 C-3.19006881 12.55993119 -1.69925761 12.39452693 0.375 12.625 C1.674375 12.769375 2.97375 12.91375 4.3125 13.0625 C3.9825 14.3825 3.6525 15.7025 3.3125 17.0625 C-3.80958505 17.66606653 -3.80958505 17.66606653 -7.6875 15 C-9.6875 12.0625 -9.6875 12.0625 -10.375 8.5625 C-9.6875 5.0625 -9.6875 5.0625 -7.125 2.0625 C-3.6875 0.0625 -3.6875 0.0625 0 0 Z " fill="#78BFD3" transform="translate(138.6875,318.9375)"/>
<path d="M0 0 C1.98 0 3.96 0 6 0 C6 10.23 6 20.46 6 31 C4.02 31 2.04 31 0 31 C0 20.77 0 10.54 0 0 Z " fill="#6EBAD0" transform="translate(383,157)"/>
<path d="M0 0 C2.3125 1.625 2.3125 1.625 4 4 C4.25 7.25 4.25 7.25 4 10 C0.37 10 -3.26 10 -7 10 C-6.67 10.66 -6.34 11.32 -6 12 C-3.87423218 12.46651207 -3.87423218 12.46651207 -1.4375 12.625 C-0.61121094 12.69976562 0.21507812 12.77453125 1.06640625 12.8515625 C1.70449219 12.90054687 2.34257812 12.94953125 3 13 C2.67 14.32 2.34 15.64 2 17 C-5.95467422 17.61189802 -5.95467422 17.61189802 -9.5625 15.5 C-11.58645748 11.98007394 -11.83083813 8.96684481 -11 5 C-7.87668901 0.93969572 -5.12366752 -0.60996042 0 0 Z " fill="#77BED2" transform="translate(247,363)"/>
<path d="M0 0 C1.32 0 2.64 0 4 0 C4.33 2.31 4.66 4.62 5 7 C6.11375 6.95875 7.2275 6.9175 8.375 6.875 C12 7 12 7 14 9 C14.1953125 12.2578125 14.1953125 12.2578125 14.125 16.125 C14.10695312 17.40632813 14.08890625 18.68765625 14.0703125 20.0078125 C14.04710937 20.99523437 14.02390625 21.98265625 14 23 C12.68 23 11.36 23 10 23 C9.67 19.04 9.34 15.08 9 11 C7.68 11.33 6.36 11.66 5 12 C4.67 15.63 4.34 19.26 4 23 C2.68 23 1.36 23 0 23 C0 15.41 0 7.82 0 0 Z " fill="#7CC0D4" transform="translate(143,357)"/>
<path d="M0 0 C1.32 0 2.64 0 4 0 C4.33 3.96 4.66 7.92 5 12 C6.65 12.33 8.3 12.66 10 13 C10 9.04 10 5.08 10 1 C11.32 1 12.64 1 14 1 C14 6.28 14 11.56 14 17 C3.56792824 17.49092102 3.56792824 17.49092102 1.15625 15.40625 C-0.37640901 12.21666233 -0.2931756 9.77251984 -0.1875 6.25 C-0.16042969 5.07953125 -0.13335937 3.9090625 -0.10546875 2.703125 C-0.07066406 1.81109375 -0.03585937 0.9190625 0 0 Z " fill="#78BED3" transform="translate(356,363)"/>
<path d="M0 0 C1.32 0 2.64 0 4 0 C4.33 3.96 4.66 7.92 5 12 C6.65 12.33 8.3 12.66 10 13 C10 9.04 10 5.08 10 1 C11.32 1 12.64 1 14 1 C14 6.28 14 11.56 14 17 C3.56792824 17.49092102 3.56792824 17.49092102 1.15625 15.40625 C-0.37640901 12.21666233 -0.2931756 9.77251984 -0.1875 6.25 C-0.16042969 5.07953125 -0.13335937 3.9090625 -0.10546875 2.703125 C-0.07066406 1.81109375 -0.03585938 0.9190625 0 0 Z " fill="#78BED3" transform="translate(188,363)"/>
<path d="M0 0 C2.9375 0.25 2.9375 0.25 6 1 C8.42130331 4.63195496 8.21022785 6.38349348 8.125 10.6875 C8.10695313 11.86699219 8.08890625 13.04648437 8.0703125 14.26171875 C8.03550781 15.61716797 8.03550781 15.61716797 8 17 C6.68 17 5.36 17 4 17 C3.67 13.04 3.34 9.08 3 5 C1.68 5 0.36 5 -1 5 C-1.33 8.96 -1.66 12.92 -2 17 C-3.32 17 -4.64 17 -6 17 C-6 11.72 -6 6.44 -6 1 C-4.35 1 -2.7 1 -1 1 C-0.67 0.67 -0.34 0.34 0 0 Z " fill="#75BDD2" transform="translate(400,319)"/>
<path d="M0 0 C1.32 0 2.64 0 4 0 C4 3.96 4 7.92 4 12 C5.65 11.67 7.3 11.34 9 11 C9.33 7.37 9.66 3.74 10 0 C11.32 0 12.64 0 14 0 C14 5.28 14 10.56 14 16 C4.8203125 16.29296875 4.8203125 16.29296875 2 16 C-0.42130331 12.36804504 -0.21022785 10.61650652 -0.125 6.3125 C-0.09792969 4.54326172 -0.09792969 4.54326172 -0.0703125 2.73828125 C-0.04710938 1.83464844 -0.02390625 0.93101562 0 0 Z " fill="#7BC0D4" transform="translate(95,320)"/>
<path d="M0 0 C9.1796875 -0.1953125 9.1796875 -0.1953125 12 0 C14 2 14 2 14.1953125 5.2578125 C14.16050781 7.17207031 14.16050781 7.17207031 14.125 9.125 C14.10695313 10.40632813 14.08890625 11.68765625 14.0703125 13.0078125 C14.04710937 13.99523437 14.02390625 14.98265625 14 16 C12.68 16 11.36 16 10 16 C9.67 12.04 9.34 8.08 9 4 C7.68 4.33 6.36 4.66 5 5 C4.67 8.63 4.34 12.26 4 16 C2.68 16 1.36 16 0 16 C0 10.72 0 5.44 0 0 Z " fill="#78BFD3" transform="translate(255,364)"/>
<path d="M0 0 C9.1796875 -0.1953125 9.1796875 -0.1953125 12 0 C14 2 14 2 14.1953125 5.2578125 C14.16050781 7.17207031 14.16050781 7.17207031 14.125 9.125 C14.10695313 10.40632813 14.08890625 11.68765625 14.0703125 13.0078125 C14.04710937 13.99523437 14.02390625 14.98265625 14 16 C12.68 16 11.36 16 10 16 C9.67 12.04 9.34 8.08 9 4 C7.68 4.33 6.36 4.66 5 5 C4.67 8.63 4.34 12.26 4 16 C2.68 16 1.36 16 0 16 C0 10.72 0 5.44 0 0 Z " fill="#78BFD3" transform="translate(375,320)"/>
<path d="M0 0 C0.99 0.66 1.98 1.32 3 2 C2.67 2.99 2.34 3.98 2 5 C-0.31 4.67 -2.62 4.34 -5 4 C-5 4.99 -5 5.98 -5 7 C-4.071875 6.938125 -3.14375 6.87625 -2.1875 6.8125 C1 7 1 7 2.9375 8.1875 C4 10 4 10 3.8125 12.5625 C3 15 3 15 1 17 C-1.3828125 17.1953125 -1.3828125 17.1953125 -4.125 17.125 C-5.49011719 17.09792969 -5.49011719 17.09792969 -6.8828125 17.0703125 C-7.58148438 17.04710937 -8.28015625 17.02390625 -9 17 C-9.33 15.35 -9.66 13.7 -10 12 C-7.03 12.33 -4.06 12.66 -1 13 C-0.67 12.34 -0.34 11.68 0 11 C-1.11375 10.87625 -2.2275 10.7525 -3.375 10.625 C-7 10 -7 10 -9 8 C-9.36023622 5.19015752 -9.38332602 3.61758081 -7.875 1.1875 C-5.15523346 -0.53501881 -3.15413751 -0.32855599 0 0 Z " fill="#7BC0D4" transform="translate(448,319)"/>
<path d="M0 0 C0.99 0.66 1.98 1.32 3 2 C2.67 2.99 2.34 3.98 2 5 C-0.31 4.67 -2.62 4.34 -5 4 C-5 4.99 -5 5.98 -5 7 C-4.071875 6.938125 -3.14375 6.87625 -2.1875 6.8125 C1 7 1 7 2.9375 8.1875 C4 10 4 10 3.8125 12.5625 C3 15 3 15 1 17 C-1.3828125 17.1953125 -1.3828125 17.1953125 -4.125 17.125 C-5.49011719 17.09792969 -5.49011719 17.09792969 -6.8828125 17.0703125 C-7.58148438 17.04710937 -8.28015625 17.02390625 -9 17 C-9.33 15.35 -9.66 13.7 -10 12 C-7.03 12.33 -4.06 12.66 -1 13 C-0.67 12.34 -0.34 11.68 0 11 C-1.11375 10.87625 -2.2275 10.7525 -3.375 10.625 C-7 10 -7 10 -9 8 C-9.36023622 5.19015752 -9.38332602 3.61758081 -7.875 1.1875 C-5.15523346 -0.53501881 -3.15413751 -0.32855599 0 0 Z " fill="#7BC0D4" transform="translate(341,319)"/>
<path d="M0 0 C0.99 0.66 1.98 1.32 3 2 C2.67 2.99 2.34 3.98 2 5 C-0.31 4.67 -2.62 4.34 -5 4 C-5 4.99 -5 5.98 -5 7 C-4.071875 6.938125 -3.14375 6.87625 -2.1875 6.8125 C1 7 1 7 2.9375 8.1875 C4 10 4 10 3.8125 12.5625 C3 15 3 15 1 17 C-1.3828125 17.1953125 -1.3828125 17.1953125 -4.125 17.125 C-5.49011719 17.09792969 -5.49011719 17.09792969 -6.8828125 17.0703125 C-7.58148438 17.04710937 -8.28015625 17.02390625 -9 17 C-9.33 15.35 -9.66 13.7 -10 12 C-7.03 12.33 -4.06 12.66 -1 13 C-0.67 12.34 -0.34 11.68 0 11 C-1.11375 10.87625 -2.2275 10.7525 -3.375 10.625 C-7 10 -7 10 -9 8 C-9.36023622 5.19015752 -9.38332602 3.61758081 -7.875 1.1875 C-5.15523346 -0.53501881 -3.15413751 -0.32855599 0 0 Z " fill="#7BC0D4" transform="translate(325,319)"/>
<path d="M0 0 C0.99 0.66 1.98 1.32 3 2 C2.67 2.99 2.34 3.98 2 5 C-0.31 4.67 -2.62 4.34 -5 4 C-5 4.99 -5 5.98 -5 7 C-4.071875 6.938125 -3.14375 6.87625 -2.1875 6.8125 C1 7 1 7 2.9375 8.1875 C4 10 4 10 3.8125 12.5625 C3 15 3 15 1 17 C-1.3828125 17.1953125 -1.3828125 17.1953125 -4.125 17.125 C-5.49011719 17.09792969 -5.49011719 17.09792969 -6.8828125 17.0703125 C-7.58148438 17.04710937 -8.28015625 17.02390625 -9 17 C-9.33 15.35 -9.66 13.7 -10 12 C-7.03 12.33 -4.06 12.66 -1 13 C-0.67 12.34 -0.34 11.68 0 11 C-1.11375 10.87625 -2.2275 10.7525 -3.375 10.625 C-7 10 -7 10 -9 8 C-9.36023622 5.19015752 -9.38332602 3.61758081 -7.875 1.1875 C-5.15523346 -0.53501881 -3.15413751 -0.32855599 0 0 Z " fill="#7BC0D4" transform="translate(221,319)"/>
<path d="M0 0 C0 1.32 0 2.64 0 4 C-0.99 4.33 -1.98 4.66 -3 5 C-3.73323796 7.01508358 -3.73323796 7.01508358 -4 9 C-2.68 9 -1.36 9 0 9 C0 10.32 0 11.64 0 13 C-1.32 13 -2.64 13 -4 13 C-4 16.63 -4 20.26 -4 24 C-5.32 24 -6.64 24 -8 24 C-8 20.37 -8 16.74 -8 13 C-8.99 13 -9.98 13 -11 13 C-11 14.98 -11 16.96 -11 19 C-11.33 19 -11.66 19 -12 19 C-12.125 12.375 -12.125 12.375 -11 9 C-10.01 9 -9.02 9 -8 9 C-8.0825 8.2575 -8.165 7.515 -8.25 6.75 C-8 4 -8 4 -6.25 1.6875 C-4 0 -4 0 0 0 Z " fill="#7EC1D5" transform="translate(295,312)"/>
<path d="M0 0 C4.29 0 8.58 0 13 0 C8.25 9.625 8.25 9.625 6 13 C8.31 13 10.62 13 13 13 C13 13.99 13 14.98 13 16 C8.38 16 3.76 16 -1 16 C0.52994792 13.20052083 2.05989583 10.40104167 3.58984375 7.6015625 C4.4149759 6.07929654 5.22564391 4.54871217 6 3 C4.02 3 2.04 3 0 3 C0 2.01 0 1.02 0 0 Z " fill="#75BDD2" transform="translate(148,320)"/>
<path d="M0 0 C4.62 0 9.24 0 14 0 C14 1.32 14 2.64 14 4 C12.35 4 10.7 4 9 4 C9 9.61 9 15.22 9 21 C7.68 21 6.36 21 5 21 C5 15.39 5 9.78 5 4 C3.35 4 1.7 4 0 4 C0 2.68 0 1.36 0 0 Z " fill="#73BCD1" transform="translate(48,315)"/>
<path d="M0 0 C0 1.32 0 2.64 0 4 C-1.134375 3.979375 -2.26875 3.95875 -3.4375 3.9375 C-6.81575674 3.58422523 -6.81575674 3.58422523 -8 5 C-8.04080783 6.99958364 -8.04254356 9.00045254 -8 11 C-4.71303767 11.79953138 -3.28976808 12.09658936 0 11 C-0.33 12.65 -0.66 14.3 -1 16 C-8.2 16.48 -8.2 16.48 -11.5 14.5 C-13.60565979 10.99056702 -13.83665744 7.99462913 -13 4 C-8.96331821 -1.24768633 -6.2829859 -1.04716432 0 0 Z " fill="#77BED3" transform="translate(318,364)"/>
<path d="M0 0 C1.65 0 3.3 0 5 0 C5.99 2.64 6.98 5.28 8 8 C8.99 5.36 9.98 2.72 11 0 C12.65 0 14.3 0 16 0 C14.02 5.28 12.04 10.56 10 16 C8.68 16 7.36 16 6 16 C4.02 10.72 2.04 5.44 0 0 Z " fill="#77BED3" transform="translate(111,320)"/>
<path d="M0 0 C0.99 0 1.98 0 3 0 C3 1.65 3 3.3 3 5 C4.65 5 6.3 5 8 5 C8 5.99 8 6.98 8 8 C6.35 8 4.7 8 3 8 C3.33 10.64 3.66 13.28 4 16 C5.65 16.33 7.3 16.66 9 17 C8.67 18.32 8.34 19.64 8 21 C5.125 21.125 5.125 21.125 2 21 C0 19 0 19 -0.1953125 16.3984375 C-0.17210937 15.40070313 -0.14890625 14.40296875 -0.125 13.375 C-0.10695312 12.37210937 -0.08890625 11.36921875 -0.0703125 10.3359375 C-0.04710937 9.56507813 -0.02390625 8.79421875 0 8 C-0.99 8 -1.98 8 -3 8 C-3 7.01 -3 6.02 -3 5 C-2.01 5 -1.02 5 0 5 C0 3.35 0 1.7 0 0 Z " fill="#74BDD2" transform="translate(131,359)"/>
<path d="M0 0 C1.65 0 3.3 0 5 0 C5 6.93 5 13.86 5 21 C3.35 21 1.7 21 0 21 C0 14.07 0 7.14 0 0 Z " fill="#8AC7D9" transform="translate(285,359)"/>
<path d="M0 0 C1.32 0 2.64 0 4 0 C4 7.59 4 15.18 4 23 C2.68 23 1.36 23 0 23 C0 15.41 0 7.82 0 0 Z " fill="#76BED2" transform="translate(321,357)"/>
<path d="M0 0 C1.32 0 2.64 0 4 0 C4 7.59 4 15.18 4 23 C2.68 23 1.36 23 0 23 C0 15.41 0 7.82 0 0 Z " fill="#70BBD0" transform="translate(431,313)"/>
<path d="M0 0 C2.97 0 5.94 0 9 0 C9 1.32 9 2.64 9 4 C7.68 4.33 6.36 4.66 5 5 C4.67 8.96 4.34 12.92 4 17 C2.68 17 1.36 17 0 17 C0 11.39 0 5.78 0 0 Z " fill="#7FC2D5" transform="translate(257,319)"/>
<path d="M0 0 C0 1.32 0 2.64 0 4 C-1.32 4.33 -2.64 4.66 -4 5 C-4.33 8.96 -4.66 12.92 -5 17 C-6.32 17 -7.64 17 -9 17 C-9 11.72 -9 6.44 -9 1 C-4 0 -4 0 0 0 Z " fill="#76BDD2" transform="translate(74,319)"/>
<path d="M0 0 C1.2375 0.1546875 1.2375 0.1546875 2.5 0.3125 C4.5 3.3125 4.5 3.3125 4.25 5.875 C3.5 8.3125 3.5 8.3125 1.5 10.3125 C-1.125 9.9375 -1.125 9.9375 -3.5 9.3125 C-4.125 5.9375 -4.125 5.9375 -4.5 2.3125 C-2.5 0.3125 -2.5 0.3125 0 0 Z " fill="#F4FAFB" transform="translate(363.5,322.6875)"/>
<path d="M0 0 C1.2375 0.1546875 1.2375 0.1546875 2.5 0.3125 C4.5 3.3125 4.5 3.3125 4.25 5.875 C3.5 8.3125 3.5 8.3125 1.5 10.3125 C-1.125 9.9375 -1.125 9.9375 -3.5 9.3125 C-4.125 5.9375 -4.125 5.9375 -4.5 2.3125 C-2.5 0.3125 -2.5 0.3125 0 0 Z " fill="#F4FAFB" transform="translate(275.5,322.6875)"/>
<path d="M0 0 C2.4375 0.1875 2.4375 0.1875 3.4375 1.1875 C3.625 4.625 3.625 4.625 3.4375 8.1875 C2.7775 8.8475 2.1175 9.5075 1.4375 10.1875 C-3.11805556 9.63194444 -3.11805556 9.63194444 -4.5625 8.1875 C-4.75 5.25 -4.75 5.25 -4.5625 2.1875 C-2.5625 0.1875 -2.5625 0.1875 0 0 Z " fill="#F2F8FA" transform="translate(345.5625,366.8125)"/>
<path d="M0 0 C4.55555556 0.55555556 4.55555556 0.55555556 6 2 C6.1875 4.9375 6.1875 4.9375 6 8 C5.34 8.66 4.68 9.32 4 10 C-0.55555556 9.44444444 -0.55555556 9.44444444 -2 8 C-2.1875 5.0625 -2.1875 5.0625 -2 2 C-1.34 1.34 -0.68 0.68 0 0 Z " fill="#F8FBFC" transform="translate(81,323)"/>
<path d="M0 0 C1.32 0 2.64 0 4 0 C4 5.28 4 10.56 4 16 C2.68 16 1.36 16 0 16 C0 10.72 0 5.44 0 0 Z " fill="#76BDD2" transform="translate(161,364)"/>
<path d="M0 0 C1.32 0 2.64 0 4 0 C4 5.28 4 10.56 4 16 C2.68 16 1.36 16 0 16 C0 10.72 0 5.44 0 0 Z " fill="#70BBD0" transform="translate(348,320)"/>
<path d="M0 0 C0.78375 0.04125 1.5675 0.0825 2.375 0.125 C2.375 3.095 2.375 6.065 2.375 9.125 C0 9.75 0 9.75 -2.625 10.125 C-4.625 8.125 -4.625 8.125 -4.875 5.125 C-4.55416156 1.2749387 -3.94115238 0.18767392 0 0 Z " fill="#F7FBFC" transform="translate(177.625,366.875)"/>
<path d="M0 0 C4.70588235 0.70588235 4.70588235 0.70588235 6 2 C6.1875 4.9375 6.1875 4.9375 6 8 C5.34 8.66 4.68 9.32 4 10 C1.375 9.625 1.375 9.625 -1 9 C-1.09765625 2.84765625 -1.09765625 2.84765625 -1 1 C-0.67 0.67 -0.34 0.34 0 0 Z " fill="#F8FBFC" transform="translate(244,323)"/>
<path d="M0 0 C0.78375 0.04125 1.5675 0.0825 2.375 0.125 C2.375 3.095 2.375 6.065 2.375 9.125 C0.37545254 9.16754356 -1.62541636 9.16580783 -3.625 9.125 C-4.625 8.125 -4.625 8.125 -4.8125 5.1875 C-4.57390036 1.29037256 -3.98646018 0.18983144 0 0 Z " fill="#F9FCFD" transform="translate(182.625,322.875)"/>
<path d="M0 0 C0.99 0 1.98 0 3 0 C3 5.28 3 10.56 3 16 C2.01 16 1.02 16 0 16 C0 10.72 0 5.44 0 0 Z " fill="#6EBAD0" transform="translate(330,364)"/>
<path d="M0 0 C0 3 0 3 -1.96875 5.26171875 C-2.8040625 6.06222656 -3.639375 6.86273438 -4.5 7.6875 C-5.3353125 8.49574219 -6.170625 9.30398437 -7.03125 10.13671875 C-7.6809375 10.75160156 -8.330625 11.36648437 -9 12 C-9.66 11.34 -10.32 10.68 -11 10 C-5.555 5.05 -5.555 5.05 0 0 Z " fill="#EEF5E6" transform="translate(178,87)"/>
<path d="M0 0 C1.65 0 3.3 0 5 0 C3.75 2.5 3.75 2.5 2 5 C0.68 5 -0.64 5 -2 5 C-1.34 3.35 -0.68 1.7 0 0 Z " fill="#86C5D7" transform="translate(118,356)"/>
<path d="M0 0 C-1.25125384 3.75376152 -2.5652404 4.24073289 -6 6 C-6.66 6 -7.32 6 -8 6 C-6.24081631 1.94034532 -4.71412298 0 0 0 Z " fill="#7BC2D6" transform="translate(145,175)"/>
<path d="M0 0 C3.96 1.98 3.96 1.98 8 4 C8 4.66 8 5.32 8 6 C4.65626525 5.44271087 1.96687001 4.64826111 -1 3 C-0.67 2.01 -0.34 1.02 0 0 Z " fill="#7FC4D7" transform="translate(136,157)"/>
<path d="M0 0 C1.65 0 3.3 0 5 0 C5.33 0.99 5.66 1.98 6 3 C3.69 3 1.38 3 -1 3 C-0.67 2.01 -0.34 1.02 0 0 Z " fill="#F7FBFC" transform="translate(380,367)"/>
<path d="M0 0 C1.65 0 3.3 0 5 0 C5.33 0.99 5.66 1.98 6 3 C3.69 3 1.38 3 -1 3 C-0.67 2.01 -0.34 1.02 0 0 Z " fill="#F7FBFC" transform="translate(241,367)"/>
<path d="M0 0 C1.65 0 3.3 0 5 0 C5.33 0.99 5.66 1.98 6 3 C3.69 3 1.38 3 -1 3 C-0.67 2.01 -0.34 1.02 0 0 Z " fill="#F7FBFC" transform="translate(212,367)"/>
<path d="M0 0 C1.65 0 3.3 0 5 0 C5.33 0.99 5.66 1.98 6 3 C3.69 3 1.38 3 -1 3 C-0.67 2.01 -0.34 1.02 0 0 Z " fill="#F7FBFC" transform="translate(116,367)"/>
<path d="M0 0 C1.32 0.66 2.64 1.32 4 2 C3.01 3.485 3.01 3.485 2 5 C0.68 4.67 -0.64 4.34 -2 4 C-1.34 2.68 -0.68 1.36 0 0 Z " fill="#7DC1D5" transform="translate(163,356)"/>
<path d="M0 0 C1.32 0.66 2.64 1.32 4 2 C3.01 3.485 3.01 3.485 2 5 C0.68 4.67 -0.64 4.34 -2 4 C-1.34 2.68 -0.68 1.36 0 0 Z " fill="#7EC1D5" transform="translate(350,312)"/>
<path d="M0 0 C1.32 0.66 2.64 1.32 4 2 C3.67 2.99 3.34 3.98 3 5 C1.68 4.67 0.36 4.34 -1 4 C-0.67 2.68 -0.34 1.36 0 0 Z " fill="#7BC0D4" transform="translate(331,356)"/>
<path d="M0 0 C2.4375 0.375 2.4375 0.375 5 1 C5.33 1.66 5.66 2.32 6 3 C3.36 3 0.72 3 -2 3 C-1.34 2.01 -0.68 1.02 0 0 Z " fill="#F9FCFD" transform="translate(418,323)"/>
<path d="M0 0 C2.4375 0.375 2.4375 0.375 5 1 C5.33 1.66 5.66 2.32 6 3 C3.36 3 0.72 3 -2 3 C-1.34 2.01 -0.68 1.02 0 0 Z " fill="#F9FCFD" transform="translate(303,323)"/>
<path d="M0 0 C2.4375 0.375 2.4375 0.375 5 1 C5.33 1.66 5.66 2.32 6 3 C3.36 3 0.72 3 -2 3 C-1.34 2.01 -0.68 1.02 0 0 Z " fill="#F9FCFD" transform="translate(199,323)"/>
<path d="M0 0 C2.4375 0.375 2.4375 0.375 5 1 C5.33 1.66 5.66 2.32 6 3 C3.36 3 0.72 3 -2 3 C-1.34 2.01 -0.68 1.02 0 0 Z " fill="#F9FCFD" transform="translate(135,323)"/>
</svg>
