<?xml version="1.0" encoding="UTF-8" standalone="no"?>
<!-- Created with Inkscape (http://www.inkscape.org/) -->

<svg
   version="1.1"
   id="svg2"
   width="680"
   height="680"
   viewBox="0 0 680 680"
   sodipodi:docname="LOGO WEB.ai"
   xmlns:inkscape="http://www.inkscape.org/namespaces/inkscape"
   xmlns:sodipodi="http://sodipodi.sourceforge.net/DTD/sodipodi-0.dtd"
   xmlns="http://www.w3.org/2000/svg"
   xmlns:svg="http://www.w3.org/2000/svg">
  <defs
     id="defs6">
    <clipPath
       clipPathUnits="userSpaceOnUse"
       id="clipPath16">
      <path
         d="M 0,510 H 510 V 0 H 0 Z"
         id="path14" />
    </clipPath>
  </defs>
  <sodipodi:namedview
     id="namedview4"
     pagecolor="#ffffff"
     bordercolor="#000000"
     borderopacity="0.25"
     inkscape:showpageshadow="2"
     inkscape:pageopacity="0.0"
     inkscape:pagecheckerboard="0"
     inkscape:deskcolor="#d1d1d1" />
  <g
     id="g8"
     inkscape:groupmode="layer"
     inkscape:label="LOGO WEB"
     transform="matrix(1.3333333,0,0,-1.3333333,0,680)">
    <g
       id="g10">
      <g
         id="g12"
         clip-path="url(#clipPath16)">
        <g
           id="g18"
           transform="translate(471.9787,476.9196)">
          <path
             d="m 0,0 c -35.303,-37.458 -29.299,-27.851 -77.334,-103.506 -28.672,-45.158 -64.202,-47.195 -118.927,-25.215 17.176,29.69 36.648,42.161 57.797,68.412 -1.226,1.381 -9.694,-7.921 -13.937,-10.992 -2.933,-2.122 -5.839,-4.311 -8.5,-6.766 -16.196,-14.943 -21.181,-19.999 -42.686,-41.139 -5.984,36.067 -0.932,65.412 24.08,87.344 C -126.812,14.341 -65.272,12.674 0,0"
             style="fill:#96c468;fill-opacity:1;fill-rule:nonzero;stroke:none"
             id="path20" />
        </g>
        <g
           id="g22"
           transform="translate(152.3098,467.4291)">
          <path
             d="m 0,0 c 78.765,-1.792 118.891,-39.832 98.009,-103.972 -7.671,16.988 -6.49,16.192 -15.19,30.295 -5.253,8.004 -8.242,10.705 -11.572,15.089 C 82.686,-78.08 87.022,-86.026 92.773,-104.566 43.22,-117.464 31.876,-117.671 0,0"
             style="fill:#96c468;fill-opacity:1;fill-rule:nonzero;stroke:none"
             id="path24" />
        </g>
        <g
           id="g26"
           transform="translate(71.0093,238.5014)">
          <path
             d="m 0,0 17.863,-24.017 c 0,0 0.45,91.866 87.364,152.661 L 93.668,148.908 C 93.668,148.908 12.909,111.982 0,0"
             style="fill:#fdd948;fill-opacity:1;fill-rule:nonzero;stroke:none"
             id="path28" />
        </g>
        <g
           id="g30"
           transform="translate(254.8066,227.9224)">
          <path
             d="m 0,0 h 3.01 c 0.747,0 1.353,0.606 1.353,1.353 v 25.109 c 0,0.748 -0.606,1.353 -1.353,1.353 h -3.268 c -0.753,0 -1.361,-0.614 -1.354,-1.367 L -1.353,1.34 C -1.346,0.598 -0.742,0 0,0"
             style="fill:#6dbcd2;fill-opacity:1;fill-rule:nonzero;stroke:none"
             id="path32" />
        </g>
        <g
           id="g34"
           transform="translate(236.3602,208.7032)">
          <path
             d="m 0,0 v -3.591 c 0,-0.747 -0.606,-1.353 -1.353,-1.353 h -24.08 c -0.747,0 -1.353,0.606 -1.353,1.353 V 0 c 0,0.747 0.606,1.353 1.353,1.353 h 24.08 C -0.606,1.353 0,0.747 0,0"
             style="fill:#6dbcd2;fill-opacity:1;fill-rule:nonzero;stroke:none"
             id="path36" />
        </g>
        <g
           id="g38"
           transform="translate(241.1875,224.7063)">
          <path
             d="M 0,0 -1.67,-3.179 C -2.018,-3.84 -2.836,-4.095 -3.498,-3.747 l -18.153,9.539 c -0.662,0.348 -0.917,1.166 -0.569,1.828 l 1.67,3.178 c 0.348,0.662 1.166,0.917 1.828,0.569 L -0.569,1.828 C 0.093,1.48 0.348,0.662 0,0"
             style="fill:#6dbcd2;fill-opacity:1;fill-rule:nonzero;stroke:none"
             id="path40" />
        </g>
        <g
           id="g42"
           transform="translate(242.7951,192.3636)">
          <path
             d="M 0,0 2.007,-2.978 C 2.424,-3.598 2.26,-4.439 1.641,-4.857 L -15.891,-16.67 c -0.62,-0.418 -1.461,-0.254 -1.879,0.366 l -2.006,2.978 c -0.418,0.62 -0.254,1.461 0.366,1.879 L -1.879,0.366 C -1.259,0.784 -0.418,0.62 0,0"
             style="fill:#6dbcd2;fill-opacity:1;fill-rule:nonzero;stroke:none"
             id="path44" />
        </g>
        <g
           id="g46"
           transform="translate(254.8066,155.9577)">
          <path
             d="m 0,0 h 3.01 c 0.747,0 1.353,0.606 1.353,1.353 v 25.109 c 0,0.748 -0.606,1.354 -1.353,1.354 h -3.268 c -0.753,0 -1.361,-0.615 -1.354,-1.368 L -1.353,1.34 C -1.346,0.598 -0.742,0 0,0"
             style="fill:#6dbcd2;fill-opacity:1;fill-rule:nonzero;stroke:none"
             id="path48" />
        </g>
        <g
           id="g50"
           transform="translate(425.2386,212.7333)">
          <path
             d="m 0,0 -61.819,1.696 c -1.169,0.032 -1.942,1.227 -1.492,2.307 l 11.197,26.853 c 1.422,3.41 -1.894,6.881 -5.365,5.615 L -162.528,-1.832 c -3.495,-1.274 -3.717,-6.133 -0.353,-7.721 l 99.923,-47.16 c 3.02,-1.425 6.342,1.293 5.542,4.536 l -6.634,26.883 c -0.263,1.066 0.56,2.091 1.658,2.065 l 61.968,-1.481 c 0.925,-0.022 2.831,-0.201 2.845,0.724 L 1.783,-0.8 C 1.798,0.113 0.912,-0.025 0,0"
             style="fill:#6ebad0;fill-opacity:1;fill-rule:nonzero;stroke:none"
             id="path52" />
        </g>
        <g
           id="g54"
           transform="translate(412.1114,193.8378)">
          <path
             d="m 0,0 c 9.308,82.125 -43.066,135.461 -43.066,135.461 l 18.469,17.771 c 108.054,-91.934 47.392,-332.663 -138.714,-321.288 -151.466,9.243 -174.321,122.053 -177.57,163.735 0,0.023 0,0.035 -0.012,0.059 -1.048,9.831 -0.86,15.895 -0.86,15.895 l 15.66,-23.148 c 0,0 36.03,-56.435 68.457,-73.249 32.426,-16.814 55.234,-12.01 55.234,-12.01 -33.616,12.01 -58.837,40.834 -60.038,46.839 -1.201,6.005 -1.201,13.211 4.804,13.211 6.005,0 27.623,-14.412 38.432,-19.216 10.797,-4.804 82.856,-16.814 102.072,-28.824 19.216,-12.01 32.721,-53.02 32.721,-53.02 0,0 3.909,2.154 5.664,2.967 25.221,14.047 45.272,32.686 61.733,73.849 C -7.948,-38.326 -2.602,-18.062 0,0"
             style="fill:#fdd948;fill-opacity:1;fill-rule:nonzero;stroke:none"
             id="path56" />
        </g>
      </g>
    </g>
  </g>
</svg>
